<?xml version="1.0" encoding="utf-8"?>
<!-- Generator: Adobe Illustrator 23.0.1, SVG Export Plug-In . SVG Version: 6.00 Build 0)  -->
<svg version="1.1" id="Layer_1" xmlns="http://www.w3.org/2000/svg" xmlns:xlink="http://www.w3.org/1999/xlink" x="0px" y="0px"
	 viewBox="0 0 24 24" style="enable-background:new 0 0 24 24;" xml:space="preserve">
<path d="M10.7,12l4,5h-2.3l-2.8-3.6L6.7,17H4.3l4-5l-4-5h2.3l2.8,3.6L12.3,7h2.3L10.7,12z M15.9,21H21v-1.3h-3.2
	c0.1-0.2,0.2-0.3,0.3-0.4c0.1-0.1,0.4-0.3,0.8-0.6l0.6-0.4c0.5-0.3,0.8-0.7,1.1-0.9c0.3-0.4,0.5-0.9,0.5-1.5c0-0.7-0.2-1.3-0.7-1.7
	s-1.1-0.7-1.9-0.7c-1,0-1.7,0.4-2.1,1.1C16.1,15,16,15.5,16,16.2h1.4c0-0.4,0.1-0.7,0.2-0.9c0.2-0.3,0.5-0.5,0.9-0.5
	c0.3,0,0.6,0.1,0.7,0.3c0.2,0.2,0.3,0.5,0.3,0.8c0,0.4-0.2,0.7-0.5,1.1c-0.2,0.2-0.6,0.6-1.3,1c-0.8,0.6-1.3,1.1-1.5,1.6
	C16,20,15.9,20.5,15.9,21z"/>
</svg>
