<?xml version="1.0" encoding="utf-8"?>
<!-- Generator: Adobe Illustrator 23.0.1, SVG Export Plug-In . SVG Version: 6.00 Build 0)  -->
<svg version="1.1" id="Layer_1" xmlns="http://www.w3.org/2000/svg" xmlns:xlink="http://www.w3.org/1999/xlink" x="0px" y="0px"
	 viewBox="0 0 24 24" style="enable-background:new 0 0 24 24;" xml:space="preserve">
<path d="M10.7,12l4,5h-2.3l-2.8-3.6L6.7,17H4.3l4-5l-4-5h2.3l2.8,3.6L12.3,7h2.3L10.7,12z M15.9,18.7c0,0.6,0.1,1.1,0.4,1.4
	c0.4,0.7,1.1,1,2.2,1c0.9,0,1.5-0.2,1.9-0.7c0.4-0.5,0.7-1,0.7-1.7c0-0.6-0.2-1.1-0.6-1.4C20.2,17.2,20,17,19.9,17
	c0.2-0.1,0.3-0.2,0.5-0.4c0.3-0.3,0.4-0.7,0.4-1.1c0-0.6-0.2-1.1-0.7-1.5c-0.4-0.4-1-0.6-1.7-0.6c-0.4,0-0.7,0-1,0.1
	c-0.3,0.1-0.5,0.2-0.7,0.4c-0.3,0.2-0.4,0.5-0.6,0.8c-0.1,0.3-0.2,0.7-0.2,1h1.4c0-0.4,0.1-0.7,0.2-0.9c0.2-0.2,0.4-0.3,0.8-0.3
	c0.3,0,0.5,0.1,0.7,0.3s0.2,0.4,0.2,0.7c0,0.4-0.2,0.7-0.5,0.9c-0.2,0.1-0.5,0.1-1,0.1v1c0.5,0,0.8,0,1.1,0.1c0.4,0.2,0.6,0.5,0.6,1
	c0,0.4-0.1,0.7-0.3,0.8S18.7,20,18.4,20c-0.5,0-0.8-0.2-1-0.5c-0.1-0.2-0.1-0.4-0.1-0.7H15.9z M15.9,10.5H21V9.2h-3.2
	c0.1-0.2,0.2-0.3,0.3-0.4c0.1-0.1,0.4-0.3,0.8-0.6l0.6-0.4c0.5-0.3,0.8-0.7,1.1-0.9C20.8,6.4,21,6,21,5.4c0-0.7-0.2-1.3-0.7-1.7
	S19.2,3,18.4,3c-1,0-1.7,0.4-2.1,1.1C16.1,4.5,16,5,16,5.7h1.4c0-0.4,0.1-0.7,0.2-0.9c0.2-0.3,0.5-0.5,0.9-0.5
	c0.3,0,0.6,0.1,0.7,0.3c0.2,0.2,0.3,0.5,0.3,0.8c0,0.4-0.2,0.7-0.5,1.1c-0.2,0.2-0.6,0.6-1.3,1C17,8,16.5,8.5,16.2,9
	C16,9.5,15.9,10,15.9,10.5z"/>
</svg>
